<svg width="5" height="16" viewBox="0 0 5 16" fill="none" xmlns="http://www.w3.org/2000/svg">
<path d="M2.4483 11.6629C2.99444 11.6629 3.4723 11.8591 3.8819 12.2517C4.27444 12.6613 4.4707 13.1391 4.4707 13.6853C4.4707 14.2314 4.27444 14.7093 3.8819 15.1189C3.4723 15.5285 2.99444 15.7333 2.4483 15.7333C1.8851 15.7333 1.40724 15.5285 1.0147 15.1189C0.605103 14.7093 0.400303 14.2314 0.400303 13.6853C0.400303 13.1391 0.605103 12.6613 1.0147 12.2517C1.40724 11.8591 1.8851 11.6629 2.4483 11.6629ZM3.0867 0.266609C3.63899 0.266609 4.0867 0.714324 4.0867 1.26661L4.0867 8.33328C4.0867 8.88556 3.63899 9.33328 3.0867 9.33328L1.7843 9.33328C1.23202 9.33328 0.784303 8.88556 0.784303 8.33328L0.784304 1.26661C0.784304 0.714323 1.23202 0.266609 1.7843 0.266609L3.0867 0.266609Z" fill="#1B1B1B"/>
</svg>
