<svg width="24" height="24" viewBox="0 0 24 24" fill="none" xmlns="http://www.w3.org/2000/svg">
<path d="M19.6601 4.2337C19.3531 3.9634 18.8708 3.92472 18.3722 4.13255H18.3713C17.8469 4.351 3.52653 10.7277 2.94356 10.9882C2.83753 11.0265 1.91149 11.3852 2.00688 12.1842C2.09203 12.9046 2.8363 13.2029 2.92719 13.2374L6.56787 14.5315C6.80941 15.3662 7.69983 18.4457 7.89674 19.1036C8.01956 19.5138 8.21975 20.0527 8.5706 20.1636C8.87846 20.2868 9.18468 20.1742 9.38282 20.0127L11.6087 17.8694L15.2019 20.7786L15.2874 20.8317C15.5314 20.9439 15.7652 21 15.9883 21C16.1606 21 16.326 20.9664 16.4841 20.8993C17.0224 20.6698 17.2377 20.1372 17.2603 20.0769L19.9442 5.59413C20.108 4.82063 19.8803 4.42708 19.6601 4.2337ZM9.7787 15.0491L8.55054 18.4491L7.32237 14.1991L16.7383 6.97411L9.7787 15.0491Z" fill="#BBBAB0"/>
</svg>
