<svg width="316" height="464" viewBox="0 0 316 464" fill="none" xmlns="http://www.w3.org/2000/svg">
<g opacity="0.05">
<path d="M182.205 130.258L194.982 216.167L64.5876 98.7426L182.205 130.258Z" fill="url(#paint0_linear_162_6713)"/>
<path d="M182.205 130.257L194.982 216.165L295.467 160.605L182.205 130.257Z" fill="url(#paint1_linear_162_6713)"/>
<path d="M408.73 190.954L354.711 258.965L295.468 160.606L408.73 190.954Z" fill="url(#paint2_linear_162_6713)"/>
<path d="M230.879 401.65L194.981 216.166L295.466 160.606L230.879 401.65Z" fill="url(#paint3_linear_162_6713)"/>
<path d="M230.879 401.65L354.709 258.965L295.467 160.606L230.879 401.65Z" fill="url(#paint4_linear_162_6713)"/>
<path d="M230.879 401.65L194.982 216.167L64.5876 98.7426L230.879 401.65Z" fill="url(#paint5_linear_162_6713)"/>
<path d="M230.879 401.649L354.71 258.965L526.346 222.469L230.879 401.649Z" fill="url(#paint6_linear_162_6713)"/>
<path d="M295.467 160.606L321.925 61.8648L408.729 190.954L295.467 160.606Z" fill="url(#paint7_linear_162_6713)"/>
<path d="M296.919 160.995L323.377 62.2539L183.658 130.646L296.919 160.995Z" fill="url(#paint8_linear_162_6713)"/>
<path d="M321.925 61.8648L394.528 81.3189L408.729 190.954L321.925 61.8648Z" fill="url(#paint9_linear_162_6713)"/>
<path d="M323.377 62.2539L250.773 42.7999L183.658 130.646L323.377 62.2539Z" fill="url(#paint10_linear_162_6713)"/>
<path d="M250.772 42.7999L178.169 23.3459L183.657 130.646L250.772 42.7999Z" fill="url(#paint11_linear_162_6713)"/>
<path d="M178.169 23.3458L64.5876 98.7417L183.657 130.646L178.169 23.3458Z" fill="url(#paint12_linear_162_6713)"/>
</g>
<defs>
<linearGradient id="paint0_linear_162_6713" x1="122.849" y1="99.2076" x2="167.214" y2="230.352" gradientUnits="userSpaceOnUse">
<stop stop-color="#EAEAEA"/>
<stop offset="1" stop-color="#EAEAEA" stop-opacity="0"/>
</linearGradient>
<linearGradient id="paint1_linear_162_6713" x1="246.728" y1="116.25" x2="193.484" y2="236.147" gradientUnits="userSpaceOnUse">
<stop stop-color="#E0E0E0"/>
<stop offset="1" stop-color="#E0E0E0" stop-opacity="0"/>
</linearGradient>
<linearGradient id="paint2_linear_162_6713" x1="359.854" y1="146.563" x2="346.017" y2="277.019" gradientUnits="userSpaceOnUse">
<stop stop-color="#E0E0E0"/>
<stop offset="1" stop-color="#E0E0E0" stop-opacity="0"/>
</linearGradient>
<linearGradient id="paint3_linear_162_6713" x1="196.067" y1="210.753" x2="344.652" y2="254.293" gradientUnits="userSpaceOnUse">
<stop stop-color="#F7F7F7"/>
<stop offset="1" stop-color="#F7F7F7" stop-opacity="0"/>
</linearGradient>
<linearGradient id="paint4_linear_162_6713" x1="354.463" y1="259.406" x2="201.78" y2="217.253" gradientUnits="userSpaceOnUse">
<stop stop-color="#F1F1F1"/>
<stop offset="1" stop-color="#F1F1F1" stop-opacity="0"/>
</linearGradient>
<linearGradient id="paint5_linear_162_6713" x1="180.027" y1="129.675" x2="115.44" y2="370.718" gradientUnits="userSpaceOnUse">
<stop stop-color="#A3A3A3"/>
<stop offset="1" stop-color="#A3A3A3" stop-opacity="0"/>
</linearGradient>
<linearGradient id="paint6_linear_162_6713" x1="410.907" y1="191.538" x2="346.319" y2="432.581" gradientUnits="userSpaceOnUse">
<stop stop-color="#DCDCDC"/>
<stop offset="1" stop-color="#DCDCDC" stop-opacity="0"/>
</linearGradient>
<linearGradient id="paint7_linear_162_6713" x1="284.416" y1="80.3863" x2="429.889" y2="205.081" gradientUnits="userSpaceOnUse">
<stop stop-color="#F3F3F3"/>
<stop offset="1" stop-color="#F3F3F3" stop-opacity="0"/>
</linearGradient>
<linearGradient id="paint8_linear_162_6713" x1="359.05" y1="107.838" x2="159.439" y2="138.826" gradientUnits="userSpaceOnUse">
<stop stop-color="#E2E2E2"/>
<stop offset="1" stop-color="#E2E2E2" stop-opacity="0"/>
</linearGradient>
<linearGradient id="paint9_linear_162_6713" x1="434.814" y1="78.4486" x2="353.88" y2="148.689" gradientUnits="userSpaceOnUse">
<stop stop-color="#F9F9F9"/>
<stop offset="1" stop-color="#F9F9F9" stop-opacity="0"/>
</linearGradient>
<linearGradient id="paint10_linear_162_6713" x1="217.32" y1="20.1712" x2="252.29" y2="121.469" gradientUnits="userSpaceOnUse">
<stop stop-color="#F9F9F9"/>
<stop offset="1" stop-color="#F9F9F9" stop-opacity="0"/>
</linearGradient>
<linearGradient id="paint11_linear_162_6713" x1="287.627" y1="45.2217" x2="131.128" y2="91.4882" gradientUnits="userSpaceOnUse">
<stop stop-color="#EAEAEA"/>
<stop offset="1" stop-color="#EAEAEA" stop-opacity="0"/>
</linearGradient>
<linearGradient id="paint12_linear_162_6713" x1="150.58" y1="15.9532" x2="94.7986" y2="157.531" gradientUnits="userSpaceOnUse">
<stop stop-color="#CDCDCD"/>
<stop offset="1" stop-color="#CDCDCD" stop-opacity="0"/>
</linearGradient>
</defs>
</svg>
