<svg width="24" height="24" viewBox="0 0 24 24" fill="none" xmlns="http://www.w3.org/2000/svg">
<path d="M16 12V8C16 5.79086 14.2091 4 12 4V4C9.79086 4 8 5.79086 8 8V12" stroke="#1B1A19" stroke-width="1.5"/>
<path fill-rule="evenodd" clip-rule="evenodd" d="M9 11C6.79086 11 5 12.7909 5 15V17C5 19.2091 6.79086 21 9 21H15C17.2091 21 19 19.2091 19 17V15C19 12.7909 17.2091 11 15 11H9ZM12 14C11.4477 14 11 14.4477 11 15V17C11 17.5523 11.4477 18 12 18C12.5523 18 13 17.5523 13 17V15C13 14.4477 12.5523 14 12 14Z" fill="#1B1A19"/>
</svg>
