<svg width="12" height="21" viewBox="0 0 12 21" fill="none" xmlns="http://www.w3.org/2000/svg">
<path d="M6.204 15.994C6.98133 15.8913 7.568 15.631 7.964 15.213C8.36733 14.7877 8.569 14.234 8.569 13.552C8.569 13.2733 8.51767 13.0313 8.415 12.826C8.31967 12.6133 8.18033 12.4263 7.997 12.265C7.821 12.1037 7.612 11.9643 7.37 11.847C7.128 11.7297 6.864 11.6197 6.578 11.517L6.204 15.994ZM5.5 4.367C5.08933 4.41833 4.741 4.50633 4.455 4.631C4.169 4.74833 3.93433 4.895 3.751 5.071C3.56767 5.247 3.432 5.445 3.344 5.665C3.26333 5.885 3.223 6.116 3.223 6.358C3.223 6.63667 3.27067 6.88233 3.366 7.095C3.46867 7.30033 3.60433 7.48733 3.773 7.656C3.949 7.81733 4.15433 7.964 4.389 8.096C4.62367 8.22067 4.88033 8.338 5.159 8.448L5.5 4.367ZM6.787 8.976C7.315 9.13733 7.83933 9.317 8.36 9.515C8.88067 9.70567 9.34633 9.955 9.757 10.263C10.175 10.571 10.5123 10.956 10.769 11.418C11.0257 11.8727 11.154 12.4447 11.154 13.134C11.154 13.816 11.0403 14.4577 10.813 15.059C10.5857 15.653 10.252 16.181 9.812 16.643C9.372 17.0977 8.833 17.4717 8.195 17.765C7.557 18.051 6.82733 18.2197 6.006 18.271L5.874 19.888C5.86667 20.0567 5.79333 20.2107 5.654 20.35C5.522 20.4967 5.35333 20.57 5.148 20.57H4.147L4.345 18.216C3.487 18.0987 2.68033 17.864 1.925 17.512C1.16967 17.16 0.528 16.7237 0 16.203L0.836 14.96C0.909333 14.85 1.00467 14.762 1.122 14.696C1.24667 14.6227 1.37867 14.586 1.518 14.586C1.67933 14.586 1.85167 14.6447 2.035 14.762C2.21833 14.872 2.42733 15.004 2.662 15.158C2.89667 15.3047 3.16433 15.455 3.465 15.609C3.76567 15.763 4.12133 15.8767 4.532 15.95L4.939 11.033C4.41833 10.8863 3.90133 10.714 3.388 10.516C2.882 10.318 2.42367 10.0577 2.013 9.735C1.60967 9.405 1.28333 8.99067 1.034 8.492C0.784667 7.99333 0.66 7.37 0.66 6.622C0.66 6.06467 0.77 5.522 0.99 4.994C1.21 4.45867 1.53267 3.982 1.958 3.564C2.39067 3.146 2.91867 2.80133 3.542 2.53C4.16533 2.25867 4.88033 2.10467 5.687 2.068L5.808 0.682C5.82267 0.506 5.896 0.348334 6.028 0.209001C6.16 0.0696671 6.33233 0 6.545 0H7.546L7.37 2.156C8.14733 2.28067 8.81833 2.50433 9.383 2.827C9.94767 3.14233 10.4353 3.498 10.846 3.894L10.186 4.895C10.0907 5.04167 9.99167 5.15167 9.889 5.225C9.78633 5.29833 9.66167 5.335 9.515 5.335C9.405 5.335 9.273 5.302 9.119 5.236C8.965 5.16267 8.79267 5.07833 8.602 4.983C8.41133 4.88033 8.195 4.77767 7.953 4.675C7.71833 4.57233 7.458 4.488 7.172 4.422L6.787 8.976Z" fill="#BBBAB0"/>
</svg>
