<svg width="237" height="140" viewBox="0 0 237 140" fill="none" xmlns="http://www.w3.org/2000/svg">
<path fill-rule="evenodd" clip-rule="evenodd" d="M179.44 50.64C181.027 50.4533 182.227 49.9333 183.04 49.08C183.867 48.2267 184.28 47.1267 184.28 45.78C184.28 45.2067 184.173 44.7067 183.96 44.28C183.747 43.8533 183.453 43.48 183.08 43.16C182.72 42.84 182.287 42.5667 181.78 42.34C181.273 42.1 180.727 41.88 180.14 41.68L179.44 50.64ZM175.001 30H178.355L177.84 36.76C177.28 36.5467 176.76 36.32 176.28 36.08C175.8 35.8267 175.38 35.54 175.02 35.22C174.673 34.8867 174.4 34.5067 174.2 34.08C174 33.6533 173.9 33.16 173.9 32.6C173.9 32.1067 173.987 31.64 174.16 31.2C174.333 30.76 174.607 30.3667 174.98 30.02L175.001 30ZM184.423 30H181.039L180.46 37.6C181.42 37.8933 182.367 38.22 183.3 38.58C184.247 38.9267 185.093 39.38 185.84 39.94C186.587 40.4867 187.187 41.1733 187.64 42C188.107 42.8267 188.34 43.86 188.34 45.1C188.34 46.3133 188.133 47.46 187.72 48.54C187.32 49.6067 186.727 50.5533 185.94 51.38C185.153 52.1933 184.187 52.86 183.04 53.38C181.907 53.8867 180.613 54.1867 179.16 54.28L178.92 57.48C178.907 57.76 178.793 58.0133 178.58 58.24C178.367 58.48 178.093 58.6 177.76 58.6H176.16L176.5 54.22C174.927 54.0333 173.46 53.62 172.1 52.98C170.753 52.3267 169.6 51.5133 168.64 50.54L169.94 48.56C170.06 48.3867 170.213 48.2467 170.4 48.14C170.6 48.02 170.813 47.96 171.04 47.96C171.32 47.96 171.62 48.0733 171.94 48.3C172.273 48.5267 172.66 48.7933 173.1 49.1C173.54 49.3933 174.06 49.6867 174.66 49.98C175.26 50.26 175.967 50.4667 176.78 50.6L177.52 40.9C176.587 40.62 175.66 40.3067 174.74 39.96C173.833 39.6 173.013 39.1267 172.28 38.54C171.56 37.9533 170.973 37.22 170.52 36.34C170.08 35.46 169.86 34.3533 169.86 33.02C169.86 32.02 170.053 31.0467 170.44 30.1C170.454 30.0665 170.469 30.0332 170.483 30H159.579C155.161 30 151.579 33.5817 151.579 38V102C151.579 106.418 155.161 110 159.579 110H196.632C201.05 110 204.632 106.418 204.632 102V38C204.632 33.5817 201.05 30 196.632 30H186.543C186.281 30.32 185.973 30.48 185.62 30.48C185.42 30.48 185.18 30.4067 184.9 30.26C184.756 30.1811 184.597 30.0944 184.423 30ZM118.44 39.64C120.027 39.4533 121.227 38.9333 122.04 38.08C122.867 37.2267 123.28 36.1267 123.28 34.78C123.28 34.2067 123.173 33.7067 122.96 33.28C122.747 32.8533 122.453 32.48 122.08 32.16C121.72 31.84 121.287 31.5667 120.78 31.34C120.273 31.1 119.727 30.88 119.14 30.68L118.44 39.64ZM126.64 31C126.443 30.6401 126.218 30.3068 125.965 30H136.842C141.26 30 144.842 33.5817 144.842 38V102C144.842 106.418 141.26 110 136.842 110H99.7895C95.3712 110 91.7895 106.418 91.7895 102V38C91.7895 33.5817 95.3712 30 99.7895 30H116.512L115.78 39.6C114.967 39.4667 114.26 39.26 113.66 38.98C113.06 38.6867 112.54 38.3933 112.1 38.1C111.66 37.7933 111.273 37.5267 110.94 37.3C110.62 37.0733 110.32 36.96 110.04 36.96C109.813 36.96 109.6 37.02 109.4 37.14C109.213 37.2467 109.06 37.3867 108.94 37.56L107.64 39.54C108.6 40.5133 109.753 41.3267 111.1 41.98C112.46 42.62 113.927 43.0333 115.5 43.22L115.16 47.6H116.76C117.093 47.6 117.367 47.48 117.58 47.24C117.793 47.0133 117.907 46.76 117.92 46.48L118.16 43.28C119.613 43.1867 120.907 42.8867 122.04 42.38C123.187 41.86 124.153 41.1933 124.94 40.38C125.727 39.5533 126.32 38.6067 126.72 37.54C127.133 36.46 127.34 35.3133 127.34 34.1C127.34 32.86 127.107 31.8267 126.64 31ZM60.44 31.64C62.0267 31.4533 63.2267 30.9333 64.04 30.08C64.0656 30.0536 64.0908 30.0269 64.1156 30H60.5681L60.44 31.64ZM53.9564 30H57.9021L57.78 31.6C56.9667 31.4667 56.26 31.26 55.66 30.98C55.06 30.6867 54.54 30.3933 54.1 30.1L53.9564 30ZM40 30H50.6511L49.64 31.54C50.6 32.5133 51.7533 33.3267 53.1 33.98C54.46 34.62 55.9267 35.0333 57.5 35.22L57.16 39.6H58.76C59.0933 39.6 59.3667 39.48 59.58 39.24C59.7933 39.0133 59.9067 38.76 59.92 38.48L60.16 35.28C61.6133 35.1867 62.9067 34.8867 64.04 34.38C65.1867 33.86 66.1533 33.1933 66.94 32.38C67.6117 31.6742 68.1424 30.8808 68.5322 30H77.0526C81.4709 30 85.0526 33.5817 85.0526 38V102C85.0526 106.418 81.4709 110 77.0526 110H68.207L68.74 109.18C67.98 108.433 67.0867 107.78 66.06 107.22C65.0333 106.647 63.82 106.26 62.42 106.06L62.72 102.14H61.12C60.7867 102.14 60.5133 102.253 60.3 102.48C60.0867 102.707 59.9733 102.967 59.96 103.26L59.76 105.94C58.3333 106.007 57.0667 106.28 55.96 106.76C54.8533 107.227 53.92 107.833 53.16 108.58C52.7164 109.016 52.334 109.489 52.0127 110H40C35.5817 110 32 106.418 32 102V38C32 33.5817 35.5817 30 40 30ZM59.4311 110H57.6976C58.2065 109.813 58.794 109.687 59.46 109.62L59.4311 110ZM62.1156 110H63.3435C62.9725 109.867 62.5714 109.76 62.14 109.68L62.1156 110Z" fill="url(#paint0_linear_359_305)"/>
<g filter="url(#filter1_i_359_305)">
<path fill-rule="evenodd" clip-rule="evenodd" d="M58.5185 89.037C68.746 89.037 77.037 80.746 77.037 70.5185C77.037 60.291 68.746 52 58.5185 52C48.291 52 40 60.291 40 70.5185C40 80.746 48.291 89.037 58.5185 89.037ZM53.5 71C54.8807 71 56 69.8807 56 68.5C56 67.1193 54.8807 66 53.5 66C52.1193 66 51 67.1193 51 68.5C51 69.8807 52.1193 71 53.5 71ZM66 68.5C66 69.8807 64.8807 71 63.5 71C62.1193 71 61 69.8807 61 68.5C61 67.1193 62.1193 66 63.5 66C64.8807 66 66 67.1193 66 68.5ZM65.9182 79.2857L65.2521 80.0315C65.9182 79.2857 65.9178 79.2853 65.9174 79.2849L65.9165 79.2841L65.9141 79.282L65.9074 79.2761L65.8867 79.258C65.8696 79.2432 65.8459 79.223 65.8159 79.1979C65.7559 79.1477 65.6704 79.0781 65.5611 78.9934C65.3427 78.8243 65.028 78.5944 64.6302 78.3405C63.8379 77.8346 62.6987 77.2221 61.3222 76.8115C58.5274 75.9779 54.7803 75.9965 51.1159 79.2875C50.705 79.6565 50.671 80.2887 51.0401 80.6996C51.4091 81.1105 52.0413 81.1445 52.4522 80.7755C55.5034 78.0353 58.4903 78.0539 60.7506 78.7281C61.9016 79.0714 62.8703 79.5897 63.5539 80.0262C63.8942 80.2434 64.1594 80.4376 64.3366 80.5748C64.425 80.6433 64.4912 80.6973 64.5333 80.7325C64.5544 80.7502 64.5695 80.7631 64.5783 80.7707L64.5866 80.7779C64.9985 81.1452 65.6302 81.1093 65.9979 80.6976C66.3658 80.2857 66.3301 79.6536 65.9182 79.2857Z" fill="#754200"/>
</g>
<g filter="url(#filter2_i_359_305)">
<path fill-rule="evenodd" clip-rule="evenodd" d="M117.519 96.037C127.746 96.037 136.037 87.746 136.037 77.5185C136.037 67.291 127.746 59 117.519 59C107.291 59 99 67.291 99 77.5185C99 87.746 107.291 96.037 117.519 96.037ZM112.5 78C113.881 78 115 76.8807 115 75.5C115 74.1193 113.881 73 112.5 73C111.119 73 110 74.1193 110 75.5C110 76.8807 111.119 78 112.5 78ZM125 75.5C125 76.8807 123.881 78 122.5 78C121.119 78 120 76.8807 120 75.5C120 74.1193 121.119 73 122.5 73C123.881 73 125 74.1193 125 75.5ZM124.919 86.2854L124.252 87.0312C124.919 86.2854 124.918 86.285 124.918 86.2847L124.917 86.2838L124.914 86.2817L124.908 86.2758L124.887 86.2577C124.87 86.2429 124.846 86.2227 124.816 86.1976C124.756 86.1474 124.671 86.0778 124.561 85.9932C124.343 85.8241 124.028 85.5942 123.631 85.3402C122.838 84.8343 121.699 84.2218 120.323 83.8112C117.528 82.9776 113.781 82.9962 110.116 86.2872C109.705 86.6562 109.671 87.2885 110.04 87.6994C110.409 88.1103 111.042 88.1442 111.453 87.7752C114.504 85.035 117.491 85.0536 119.751 85.7278C120.902 86.0711 121.871 86.5894 122.554 87.0259C122.895 87.2431 123.16 87.4373 123.337 87.5745C123.425 87.643 123.492 87.697 123.534 87.7322C123.555 87.7499 123.57 87.7628 123.579 87.7704L123.587 87.7776C123.999 88.1449 124.631 88.109 124.998 87.6973C125.366 87.2854 125.33 86.6533 124.919 86.2854Z" fill="#6F2506"/>
</g>
<g filter="url(#filter3_i_359_305)">
<path fill-rule="evenodd" clip-rule="evenodd" d="M178.519 107.037C188.746 107.037 197.037 98.746 197.037 88.5185C197.037 78.291 188.746 70 178.519 70C168.291 70 160 78.291 160 88.5185C160 98.746 168.291 107.037 178.519 107.037ZM173.5 89C174.881 89 176 87.8807 176 86.5C176 85.1193 174.881 84 173.5 84C172.119 84 171 85.1193 171 86.5C171 87.8807 172.119 89 173.5 89ZM186 86.5C186 87.8807 184.881 89 183.5 89C182.119 89 181 87.8807 181 86.5C181 85.1193 182.119 84 183.5 84C184.881 84 186 85.1193 186 86.5ZM185.919 97.2854L185.252 98.0312C185.919 97.2854 185.918 97.285 185.918 97.2847L185.917 97.2838L185.914 97.2817L185.908 97.2758L185.887 97.2577C185.87 97.2429 185.846 97.2227 185.816 97.1976C185.756 97.1474 185.671 97.0778 185.561 96.9932C185.343 96.8241 185.028 96.5942 184.631 96.3402C183.838 95.8343 182.699 95.2218 181.323 94.8112C178.528 93.9776 174.781 93.9962 171.116 97.2872C170.705 97.6562 170.671 98.2885 171.04 98.6994C171.409 99.1103 172.042 99.1442 172.453 98.7752C175.504 96.035 178.491 96.0536 180.751 96.7278C181.902 97.0711 182.871 97.5894 183.554 98.0259C183.895 98.2431 184.16 98.4373 184.337 98.5745C184.425 98.643 184.492 98.697 184.534 98.7322C184.555 98.7499 184.57 98.7628 184.579 98.7704L184.587 98.7776C184.999 99.1449 185.631 99.109 185.998 98.6973C186.366 98.2854 186.33 97.6533 185.919 97.2854Z" fill="#6E0632"/>
</g>
<defs>
<filter id="filter0_dd_359_305" x="0" y="-2" width="236.632" height="144" filterUnits="userSpaceOnUse" color-interpolation-filters="sRGB">
<feFlood flood-opacity="0" result="BackgroundImageFix"/>
<feColorMatrix in="SourceAlpha" type="matrix" values="0 0 0 0 0 0 0 0 0 0 0 0 0 0 0 0 0 0 127 0" result="hardAlpha"/>
<feOffset dx="8" dy="8"/>
<feGaussianBlur stdDeviation="12"/>
<feComposite in2="hardAlpha" operator="out"/>
<feColorMatrix type="matrix" values="0 0 0 0 0.909804 0 0 0 0 0.439216 0 0 0 0 0.733333 0 0 0 0.16 0"/>
<feBlend mode="normal" in2="BackgroundImageFix" result="effect1_dropShadow_359_305"/>
<feColorMatrix in="SourceAlpha" type="matrix" values="0 0 0 0 0 0 0 0 0 0 0 0 0 0 0 0 0 0 127 0" result="hardAlpha"/>
<feOffset dx="-8" dy="-8"/>
<feGaussianBlur stdDeviation="12"/>
<feComposite in2="hardAlpha" operator="out"/>
<feColorMatrix type="matrix" values="0 0 0 0 0.878431 0 0 0 0 0.8 0 0 0 0 0.0666667 0 0 0 0.16 0"/>
<feBlend mode="normal" in2="effect1_dropShadow_359_305" result="effect2_dropShadow_359_305"/>
<feBlend mode="normal" in="SourceGraphic" in2="effect2_dropShadow_359_305" result="shape"/>
</filter>
<filter id="filter1_i_359_305" x="40" y="52" width="37.0371" height="39.037" filterUnits="userSpaceOnUse" color-interpolation-filters="sRGB">
<feFlood flood-opacity="0" result="BackgroundImageFix"/>
<feBlend mode="normal" in="SourceGraphic" in2="BackgroundImageFix" result="shape"/>
<feColorMatrix in="SourceAlpha" type="matrix" values="0 0 0 0 0 0 0 0 0 0 0 0 0 0 0 0 0 0 127 0" result="hardAlpha"/>
<feOffset dy="2"/>
<feGaussianBlur stdDeviation="2"/>
<feComposite in2="hardAlpha" operator="arithmetic" k2="-1" k3="1"/>
<feColorMatrix type="matrix" values="0 0 0 0 0 0 0 0 0 0 0 0 0 0 0 0 0 0 0.25 0"/>
<feBlend mode="normal" in2="shape" result="effect1_innerShadow_359_305"/>
</filter>
<filter id="filter2_i_359_305" x="99" y="59" width="37.0371" height="39.037" filterUnits="userSpaceOnUse" color-interpolation-filters="sRGB">
<feFlood flood-opacity="0" result="BackgroundImageFix"/>
<feBlend mode="normal" in="SourceGraphic" in2="BackgroundImageFix" result="shape"/>
<feColorMatrix in="SourceAlpha" type="matrix" values="0 0 0 0 0 0 0 0 0 0 0 0 0 0 0 0 0 0 127 0" result="hardAlpha"/>
<feOffset dy="2"/>
<feGaussianBlur stdDeviation="2"/>
<feComposite in2="hardAlpha" operator="arithmetic" k2="-1" k3="1"/>
<feColorMatrix type="matrix" values="0 0 0 0 0 0 0 0 0 0 0 0 0 0 0 0 0 0 0.25 0"/>
<feBlend mode="normal" in2="shape" result="effect1_innerShadow_359_305"/>
</filter>
<filter id="filter3_i_359_305" x="160" y="70" width="37.0371" height="39.037" filterUnits="userSpaceOnUse" color-interpolation-filters="sRGB">
<feFlood flood-opacity="0" result="BackgroundImageFix"/>
<feBlend mode="normal" in="SourceGraphic" in2="BackgroundImageFix" result="shape"/>
<feColorMatrix in="SourceAlpha" type="matrix" values="0 0 0 0 0 0 0 0 0 0 0 0 0 0 0 0 0 0 127 0" result="hardAlpha"/>
<feOffset dy="2"/>
<feGaussianBlur stdDeviation="2"/>
<feComposite in2="hardAlpha" operator="arithmetic" k2="-1" k3="1"/>
<feColorMatrix type="matrix" values="0 0 0 0 0 0 0 0 0 0 0 0 0 0 0 0 0 0 0.25 0"/>
<feBlend mode="normal" in2="shape" result="effect1_innerShadow_359_305"/>
</filter>
<linearGradient id="paint0_linear_359_305" x1="9.37836" y1="30" x2="231.824" y2="81.9512" gradientUnits="userSpaceOnUse">
<stop stop-color="#F5DD18"/>
<stop offset="1" stop-color="#F6329C"/>
</linearGradient>
</defs>
</svg>
