<svg width="24" height="21" viewBox="0 0 24 21" fill="none" xmlns="http://www.w3.org/2000/svg">
<path fill-rule="evenodd" clip-rule="evenodd" d="M14.5978 1.5C13.4431 -0.499999 10.5563 -0.500001 9.40162 1.5L0.741361 16.5C-0.41334 18.5 1.03003 21 3.33943 21H20.6599C22.9693 21 24.4127 18.5 23.258 16.5L14.5978 1.5ZM13.0657 15.2988C12.7638 14.9942 12.4116 14.8419 12.0091 14.8419C11.594 14.8419 11.2418 14.9942 10.9525 15.2988C10.6506 15.6166 10.4997 15.9873 10.4997 16.411C10.4997 16.8348 10.6506 17.2055 10.9525 17.5233C11.2418 17.8411 11.594 18 12.0091 18C12.4116 18 12.7638 17.8411 13.0657 17.5233C13.355 17.2055 13.4997 16.8348 13.4997 16.411C13.4997 15.9873 13.355 15.6166 13.0657 15.2988ZM13.2167 7C13.2167 6.44772 12.769 6 12.2167 6H11.7827C11.2304 6 10.7827 6.44772 10.7827 7V12.0345C10.7827 12.5868 11.2304 13.0345 11.7827 13.0345H12.2167C12.769 13.0345 13.2167 12.5868 13.2167 12.0345V7Z" fill="white"/>
</svg>
