<svg width="28" height="28" viewBox="0 0 28 28" fill="none" xmlns="http://www.w3.org/2000/svg">
<path d="M22.9369 4.93937C22.5787 4.62402 22.0161 4.5789 21.4343 4.82136H21.4334C20.8216 5.07622 4.11445 12.5157 3.43432 12.8197C3.31061 12.8643 2.23024 13.2828 2.34152 14.2149C2.44087 15.0554 3.30918 15.4035 3.41521 15.4436L7.66268 16.9534C7.94447 17.9273 8.9833 21.5201 9.21303 22.2876C9.35632 22.7661 9.58987 23.3948 9.99919 23.5242C10.3584 23.668 10.7156 23.5366 10.9468 23.3482L13.5436 20.8477L17.7357 24.2417L17.8355 24.3037C18.1202 24.4346 18.3929 24.5 18.6532 24.5C18.8542 24.5 19.0472 24.4609 19.2316 24.3825C19.8596 24.1148 20.1109 23.4935 20.1371 23.4231L23.2684 6.52654C23.4595 5.62412 23.1939 5.16497 22.9369 4.93937ZM11.4086 17.5574L9.97579 21.524L8.54293 16.5657L19.5282 8.13651L11.4086 17.5574Z" fill="white"/>
</svg>
