<svg width="237" height="140" viewBox="0 0 237 140" fill="none" xmlns="http://www.w3.org/2000/svg">
<path fill-rule="evenodd" clip-rule="evenodd" d="M179.44 50.64C181.027 50.4533 182.227 49.9333 183.04 49.08C183.867 48.2267 184.28 47.1267 184.28 45.78C184.28 45.2067 184.173 44.7067 183.96 44.28C183.747 43.8533 183.453 43.48 183.08 43.16C182.72 42.84 182.287 42.5667 181.78 42.34C181.273 42.1 180.727 41.88 180.14 41.68L179.44 50.64ZM175.001 30H178.355L177.84 36.76C177.28 36.5467 176.76 36.32 176.28 36.08C175.8 35.8267 175.38 35.54 175.02 35.22C174.673 34.8867 174.4 34.5067 174.2 34.08C174 33.6533 173.9 33.16 173.9 32.6C173.9 32.1067 173.987 31.64 174.16 31.2C174.333 30.76 174.607 30.3667 174.98 30.02L175.001 30ZM184.423 30H181.039L180.46 37.6C181.42 37.8933 182.367 38.22 183.3 38.58C184.247 38.9267 185.093 39.38 185.84 39.94C186.587 40.4867 187.187 41.1733 187.64 42C188.107 42.8267 188.34 43.86 188.34 45.1C188.34 46.3133 188.133 47.46 187.72 48.54C187.32 49.6067 186.727 50.5533 185.94 51.38C185.153 52.1933 184.187 52.86 183.04 53.38C181.907 53.8867 180.613 54.1867 179.16 54.28L178.92 57.48C178.907 57.76 178.793 58.0133 178.58 58.24C178.367 58.48 178.093 58.6 177.76 58.6H176.16L176.5 54.22C174.927 54.0333 173.46 53.62 172.1 52.98C170.753 52.3267 169.6 51.5133 168.64 50.54L169.94 48.56C170.06 48.3867 170.213 48.2467 170.4 48.14C170.6 48.02 170.813 47.96 171.04 47.96C171.32 47.96 171.62 48.0733 171.94 48.3C172.273 48.5267 172.66 48.7933 173.1 49.1C173.54 49.3933 174.06 49.6867 174.66 49.98C175.26 50.26 175.967 50.4667 176.78 50.6L177.52 40.9C176.587 40.62 175.66 40.3067 174.74 39.96C173.833 39.6 173.013 39.1267 172.28 38.54C171.56 37.9533 170.973 37.22 170.52 36.34C170.08 35.46 169.86 34.3533 169.86 33.02C169.86 32.02 170.053 31.0467 170.44 30.1C170.454 30.0665 170.469 30.0332 170.483 30H159.579C155.161 30 151.579 33.5817 151.579 38V102C151.579 106.418 155.161 110 159.579 110H196.632C201.05 110 204.632 106.418 204.632 102V38C204.632 33.5817 201.05 30 196.632 30H186.543C186.281 30.32 185.973 30.48 185.62 30.48C185.42 30.48 185.18 30.4067 184.9 30.26C184.756 30.1811 184.597 30.0944 184.423 30ZM118.44 39.64C120.027 39.4533 121.227 38.9333 122.04 38.08C122.867 37.2267 123.28 36.1267 123.28 34.78C123.28 34.2067 123.173 33.7067 122.96 33.28C122.747 32.8533 122.453 32.48 122.08 32.16C121.72 31.84 121.287 31.5667 120.78 31.34C120.273 31.1 119.727 30.88 119.14 30.68L118.44 39.64ZM126.64 31C126.443 30.6401 126.218 30.3068 125.965 30H136.842C141.26 30 144.842 33.5817 144.842 38V102C144.842 106.418 141.26 110 136.842 110H99.7895C95.3712 110 91.7895 106.418 91.7895 102V38C91.7895 33.5817 95.3712 30 99.7895 30H116.512L115.78 39.6C114.967 39.4667 114.26 39.26 113.66 38.98C113.06 38.6867 112.54 38.3933 112.1 38.1C111.66 37.7933 111.273 37.5267 110.94 37.3C110.62 37.0733 110.32 36.96 110.04 36.96C109.813 36.96 109.6 37.02 109.4 37.14C109.213 37.2467 109.06 37.3867 108.94 37.56L107.64 39.54C108.6 40.5133 109.753 41.3267 111.1 41.98C112.46 42.62 113.927 43.0333 115.5 43.22L115.16 47.6H116.76C117.093 47.6 117.367 47.48 117.58 47.24C117.793 47.0133 117.907 46.76 117.92 46.48L118.16 43.28C119.613 43.1867 120.907 42.8867 122.04 42.38C123.187 41.86 124.153 41.1933 124.94 40.38C125.727 39.5533 126.32 38.6067 126.72 37.54C127.133 36.46 127.34 35.3133 127.34 34.1C127.34 32.86 127.107 31.8267 126.64 31ZM60.44 31.64C62.0267 31.4533 63.2267 30.9333 64.04 30.08C64.0656 30.0536 64.0908 30.0269 64.1156 30H60.5681L60.44 31.64ZM53.9564 30H57.9021L57.78 31.6C56.9667 31.4667 56.26 31.26 55.66 30.98C55.06 30.6867 54.54 30.3933 54.1 30.1L53.9564 30ZM40 30H50.6511L49.64 31.54C50.6 32.5133 51.7533 33.3267 53.1 33.98C54.46 34.62 55.9267 35.0333 57.5 35.22L57.16 39.6H58.76C59.0933 39.6 59.3667 39.48 59.58 39.24C59.7933 39.0133 59.9067 38.76 59.92 38.48L60.16 35.28C61.6133 35.1867 62.9067 34.8867 64.04 34.38C65.1867 33.86 66.1533 33.1933 66.94 32.38C67.6117 31.6742 68.1424 30.8808 68.5322 30H77.0526C81.4709 30 85.0526 33.5817 85.0526 38V102C85.0526 106.418 81.4709 110 77.0526 110H68.207L68.74 109.18C67.98 108.433 67.0867 107.78 66.06 107.22C65.0333 106.647 63.82 106.26 62.42 106.06L62.72 102.14H61.12C60.7867 102.14 60.5133 102.253 60.3 102.48C60.0867 102.707 59.9733 102.967 59.96 103.26L59.76 105.94C58.3333 106.007 57.0667 106.28 55.96 106.76C54.8533 107.227 53.92 107.833 53.16 108.58C52.7164 109.016 52.334 109.489 52.0127 110H40C35.5817 110 32 106.418 32 102V38C32 33.5817 35.5817 30 40 30ZM59.4311 110H57.6976C58.2065 109.813 58.794 109.687 59.46 109.62L59.4311 110ZM62.1156 110H63.3435C62.9725 109.867 62.5714 109.76 62.14 109.68L62.1156 110Z" fill="url(#paint0_linear_359_608)"/>
<g filter="url(#filter1_i_359_608)">
<path fill-rule="evenodd" clip-rule="evenodd" d="M58.5185 89.037C68.746 89.037 77.037 80.746 77.037 70.5185C77.037 60.291 68.746 52 58.5185 52C48.291 52 40 60.291 40 70.5185C40 80.746 48.291 89.037 58.5185 89.037ZM53.2477 60.4634C52.5028 60.9483 52.365 61.948 52.8517 62.6917L53.096 63.065C53.2758 63.3902 53.5681 63.5528 53.9728 63.5528C54.1414 63.5528 54.3325 63.4878 54.546 63.3577C54.7596 63.2168 55.0182 63.065 55.3217 62.9024C55.6364 62.729 56.013 62.5772 56.4514 62.4472C56.901 62.3062 57.4462 62.2358 58.0869 62.2358C58.5253 62.2358 58.93 62.2954 59.3009 62.4146C59.6831 62.5339 60.0091 62.7073 60.2789 62.935C60.5486 63.1518 60.7566 63.4173 60.9027 63.7317C61.0601 64.0352 61.1388 64.3821 61.1388 64.7724C61.1388 65.3794 61.0039 65.9051 60.7341 66.3496C60.4756 66.7832 60.1496 67.1789 59.7562 67.5366C59.3627 67.8835 58.9412 68.2087 58.4916 68.5122C58.0419 68.8049 57.6316 69.1138 57.2607 69.439C56.901 69.7534 56.6087 70.1057 56.3839 70.4959C56.1703 70.8753 56.0973 71.3198 56.1647 71.8293L56.294 73.0244C56.3835 73.8523 57.0824 74.4797 57.9151 74.4797C58.7142 74.4797 59.3955 73.9006 59.5243 73.112L59.6887 72.1057C59.7449 71.7588 59.9135 71.4499 60.1946 71.1789C60.4868 70.897 60.8297 70.6152 61.2231 70.3333C61.6165 70.0406 62.0324 69.7317 62.4708 69.4065C62.9205 69.0813 63.3307 68.6965 63.7017 68.252C64.0726 67.8076 64.3818 67.2873 64.6291 66.6911C64.8764 66.084 65 65.3686 65 64.5447C65 63.6992 64.8426 62.935 64.5279 62.252C64.2131 61.5691 63.7691 60.9892 63.1958 60.5122C62.6226 60.0244 61.9313 59.6504 61.1219 59.3902C60.3238 59.1301 59.4358 59 58.4578 59C57.7384 59 57.0696 59.065 56.4514 59.1951C55.8331 59.3144 55.2598 59.4824 54.7315 59.6992C54.2032 59.916 53.7086 60.1707 53.2477 60.4634ZM55.3722 79.6016C55.2486 79.9051 55.1868 80.2249 55.1868 80.561C55.1868 80.9079 55.2486 81.2331 55.3722 81.5366C55.5071 81.8293 55.687 82.084 55.9118 82.3008C56.1366 82.5176 56.4064 82.6856 56.7211 82.8049C57.0359 82.935 57.3731 83 57.7328 83C58.0925 83 58.4241 82.935 58.7276 82.8049C59.0424 82.6856 59.3121 82.5176 59.537 82.3008C59.773 82.084 59.9585 81.8293 60.0934 81.5366C60.2283 81.2331 60.2957 80.9079 60.2957 80.561C60.2957 80.2249 60.2283 79.9051 60.0934 79.6016C59.9585 79.2981 59.773 79.0379 59.537 78.8211C59.3121 78.6043 59.0424 78.4309 58.7276 78.3008C58.4241 78.1707 58.0925 78.1057 57.7328 78.1057C57.3731 78.1057 57.0359 78.1707 56.7211 78.3008C56.4064 78.4309 56.1366 78.6043 55.9118 78.8211C55.687 79.0379 55.5071 79.2981 55.3722 79.6016Z" fill="#754200"/>
</g>
<g filter="url(#filter2_i_359_608)">
<path fill-rule="evenodd" clip-rule="evenodd" d="M117.519 96.037C127.746 96.037 136.037 87.746 136.037 77.5185C136.037 67.291 127.746 59 117.519 59C107.291 59 99 67.291 99 77.5185C99 87.746 107.291 96.037 117.519 96.037ZM112.248 67.4634C111.503 67.9483 111.365 68.948 111.852 69.6917L112.096 70.065C112.276 70.3902 112.568 70.5528 112.973 70.5528C113.141 70.5528 113.332 70.4878 113.546 70.3577C113.76 70.2168 114.018 70.065 114.322 69.9024C114.636 69.729 115.013 69.5772 115.451 69.4472C115.901 69.3062 116.446 69.2358 117.087 69.2358C117.525 69.2358 117.93 69.2954 118.301 69.4146C118.683 69.5339 119.009 69.7073 119.279 69.935C119.549 70.1518 119.757 70.4173 119.903 70.7317C120.06 71.0352 120.139 71.3821 120.139 71.7724C120.139 72.3794 120.004 72.9051 119.734 73.3496C119.476 73.7832 119.15 74.1789 118.756 74.5366C118.363 74.8835 117.941 75.2087 117.492 75.5122C117.042 75.8049 116.632 76.1138 116.261 76.439C115.901 76.7534 115.609 77.1057 115.384 77.4959C115.17 77.8753 115.097 78.3198 115.165 78.8293L115.294 80.0244C115.384 80.8523 116.082 81.4797 116.915 81.4797C117.714 81.4797 118.396 80.9006 118.524 80.112L118.689 79.1057C118.745 78.7588 118.914 78.4499 119.195 78.1789C119.487 77.897 119.83 77.6152 120.223 77.3333C120.617 77.0406 121.032 76.7317 121.471 76.4065C121.92 76.0813 122.331 75.6965 122.702 75.252C123.073 74.8076 123.382 74.2873 123.629 73.6911C123.876 73.084 124 72.3686 124 71.5447C124 70.6992 123.843 69.935 123.528 69.252C123.213 68.5691 122.769 67.9892 122.196 67.5122C121.623 67.0244 120.931 66.6504 120.122 66.3902C119.324 66.1301 118.436 66 117.458 66C116.738 66 116.07 66.065 115.451 66.1951C114.833 66.3144 114.26 66.4824 113.732 66.6992C113.203 66.916 112.709 67.1707 112.248 67.4634ZM114.372 86.6016C114.249 86.9051 114.187 87.2249 114.187 87.561C114.187 87.9079 114.249 88.2331 114.372 88.5366C114.507 88.8293 114.687 89.084 114.912 89.3008C115.137 89.5176 115.406 89.6856 115.721 89.8049C116.036 89.935 116.373 90 116.733 90C117.093 90 117.424 89.935 117.728 89.8049C118.042 89.6856 118.312 89.5176 118.537 89.3008C118.773 89.084 118.958 88.8293 119.093 88.5366C119.228 88.2331 119.296 87.9079 119.296 87.561C119.296 87.2249 119.228 86.9051 119.093 86.6016C118.958 86.2981 118.773 86.0379 118.537 85.8211C118.312 85.6043 118.042 85.4309 117.728 85.3008C117.424 85.1707 117.093 85.1057 116.733 85.1057C116.373 85.1057 116.036 85.1707 115.721 85.3008C115.406 85.4309 115.137 85.6043 114.912 85.8211C114.687 86.0379 114.507 86.2981 114.372 86.6016Z" fill="#6F2506"/>
</g>
<g filter="url(#filter3_i_359_608)">
<path fill-rule="evenodd" clip-rule="evenodd" d="M178.519 107.037C188.746 107.037 197.037 98.746 197.037 88.5185C197.037 78.291 188.746 70 178.519 70C168.291 70 160 78.291 160 88.5185C160 98.746 168.291 107.037 178.519 107.037ZM173.248 78.4634C172.503 78.9483 172.365 79.948 172.852 80.6917L173.096 81.065C173.276 81.3902 173.568 81.5528 173.973 81.5528C174.141 81.5528 174.332 81.4878 174.546 81.3577C174.76 81.2168 175.018 81.065 175.322 80.9024C175.636 80.729 176.013 80.5772 176.451 80.4472C176.901 80.3062 177.446 80.2358 178.087 80.2358C178.525 80.2358 178.93 80.2954 179.301 80.4146C179.683 80.5339 180.009 80.7073 180.279 80.935C180.549 81.1518 180.757 81.4173 180.903 81.7317C181.06 82.0352 181.139 82.3821 181.139 82.7724C181.139 83.3794 181.004 83.9051 180.734 84.3496C180.476 84.7832 180.15 85.1789 179.756 85.5366C179.363 85.8835 178.941 86.2087 178.492 86.5122C178.042 86.8049 177.632 87.1138 177.261 87.439C176.901 87.7534 176.609 88.1057 176.384 88.4959C176.17 88.8753 176.097 89.3198 176.165 89.8293L176.294 91.0244C176.384 91.8523 177.082 92.4797 177.915 92.4797C178.714 92.4797 179.396 91.9006 179.524 91.112L179.689 90.1057C179.745 89.7588 179.914 89.4499 180.195 89.1789C180.487 88.897 180.83 88.6152 181.223 88.3333C181.617 88.0406 182.032 87.7317 182.471 87.4065C182.92 87.0813 183.331 86.6965 183.702 86.252C184.073 85.8076 184.382 85.2873 184.629 84.6911C184.876 84.084 185 83.3686 185 82.5447C185 81.6992 184.843 80.935 184.528 80.252C184.213 79.5691 183.769 78.9892 183.196 78.5122C182.623 78.0244 181.931 77.6504 181.122 77.3902C180.324 77.1301 179.436 77 178.458 77C177.738 77 177.07 77.065 176.451 77.1951C175.833 77.3144 175.26 77.4824 174.732 77.6992C174.203 77.916 173.709 78.1707 173.248 78.4634ZM175.372 97.6016C175.249 97.9051 175.187 98.2249 175.187 98.561C175.187 98.9079 175.249 99.2331 175.372 99.5366C175.507 99.8293 175.687 100.084 175.912 100.301C176.137 100.518 176.406 100.686 176.721 100.805C177.036 100.935 177.373 101 177.733 101C178.093 101 178.424 100.935 178.728 100.805C179.042 100.686 179.312 100.518 179.537 100.301C179.773 100.084 179.958 99.8293 180.093 99.5366C180.228 99.2331 180.296 98.9079 180.296 98.561C180.296 98.2249 180.228 97.9051 180.093 97.6016C179.958 97.2981 179.773 97.0379 179.537 96.8211C179.312 96.6043 179.042 96.4309 178.728 96.3008C178.424 96.1707 178.093 96.1057 177.733 96.1057C177.373 96.1057 177.036 96.1707 176.721 96.3008C176.406 96.4309 176.137 96.6043 175.912 96.8211C175.687 97.0379 175.507 97.2981 175.372 97.6016Z" fill="#6E0632"/>
</g>
<defs>
<filter id="filter0_dd_359_608" x="0" y="-2" width="236.632" height="144" filterUnits="userSpaceOnUse" color-interpolation-filters="sRGB">
<feFlood flood-opacity="0" result="BackgroundImageFix"/>
<feColorMatrix in="SourceAlpha" type="matrix" values="0 0 0 0 0 0 0 0 0 0 0 0 0 0 0 0 0 0 127 0" result="hardAlpha"/>
<feOffset dx="8" dy="8"/>
<feGaussianBlur stdDeviation="12"/>
<feComposite in2="hardAlpha" operator="out"/>
<feColorMatrix type="matrix" values="0 0 0 0 0.909804 0 0 0 0 0.439216 0 0 0 0 0.733333 0 0 0 0.16 0"/>
<feBlend mode="normal" in2="BackgroundImageFix" result="effect1_dropShadow_359_608"/>
<feColorMatrix in="SourceAlpha" type="matrix" values="0 0 0 0 0 0 0 0 0 0 0 0 0 0 0 0 0 0 127 0" result="hardAlpha"/>
<feOffset dx="-8" dy="-8"/>
<feGaussianBlur stdDeviation="12"/>
<feComposite in2="hardAlpha" operator="out"/>
<feColorMatrix type="matrix" values="0 0 0 0 0.878431 0 0 0 0 0.8 0 0 0 0 0.0666667 0 0 0 0.16 0"/>
<feBlend mode="normal" in2="effect1_dropShadow_359_608" result="effect2_dropShadow_359_608"/>
<feBlend mode="normal" in="SourceGraphic" in2="effect2_dropShadow_359_608" result="shape"/>
</filter>
<filter id="filter1_i_359_608" x="40" y="52" width="37.0371" height="39.037" filterUnits="userSpaceOnUse" color-interpolation-filters="sRGB">
<feFlood flood-opacity="0" result="BackgroundImageFix"/>
<feBlend mode="normal" in="SourceGraphic" in2="BackgroundImageFix" result="shape"/>
<feColorMatrix in="SourceAlpha" type="matrix" values="0 0 0 0 0 0 0 0 0 0 0 0 0 0 0 0 0 0 127 0" result="hardAlpha"/>
<feOffset dy="2"/>
<feGaussianBlur stdDeviation="2"/>
<feComposite in2="hardAlpha" operator="arithmetic" k2="-1" k3="1"/>
<feColorMatrix type="matrix" values="0 0 0 0 0 0 0 0 0 0 0 0 0 0 0 0 0 0 0.25 0"/>
<feBlend mode="normal" in2="shape" result="effect1_innerShadow_359_608"/>
</filter>
<filter id="filter2_i_359_608" x="99" y="59" width="37.0371" height="39.037" filterUnits="userSpaceOnUse" color-interpolation-filters="sRGB">
<feFlood flood-opacity="0" result="BackgroundImageFix"/>
<feBlend mode="normal" in="SourceGraphic" in2="BackgroundImageFix" result="shape"/>
<feColorMatrix in="SourceAlpha" type="matrix" values="0 0 0 0 0 0 0 0 0 0 0 0 0 0 0 0 0 0 127 0" result="hardAlpha"/>
<feOffset dy="2"/>
<feGaussianBlur stdDeviation="2"/>
<feComposite in2="hardAlpha" operator="arithmetic" k2="-1" k3="1"/>
<feColorMatrix type="matrix" values="0 0 0 0 0 0 0 0 0 0 0 0 0 0 0 0 0 0 0.25 0"/>
<feBlend mode="normal" in2="shape" result="effect1_innerShadow_359_608"/>
</filter>
<filter id="filter3_i_359_608" x="160" y="70" width="37.0371" height="39.037" filterUnits="userSpaceOnUse" color-interpolation-filters="sRGB">
<feFlood flood-opacity="0" result="BackgroundImageFix"/>
<feBlend mode="normal" in="SourceGraphic" in2="BackgroundImageFix" result="shape"/>
<feColorMatrix in="SourceAlpha" type="matrix" values="0 0 0 0 0 0 0 0 0 0 0 0 0 0 0 0 0 0 127 0" result="hardAlpha"/>
<feOffset dy="2"/>
<feGaussianBlur stdDeviation="2"/>
<feComposite in2="hardAlpha" operator="arithmetic" k2="-1" k3="1"/>
<feColorMatrix type="matrix" values="0 0 0 0 0 0 0 0 0 0 0 0 0 0 0 0 0 0 0.25 0"/>
<feBlend mode="normal" in2="shape" result="effect1_innerShadow_359_608"/>
</filter>
<linearGradient id="paint0_linear_359_608" x1="9.37836" y1="30" x2="231.824" y2="81.9512" gradientUnits="userSpaceOnUse">
<stop stop-color="#F5DD18"/>
<stop offset="1" stop-color="#F6329C"/>
</linearGradient>
</defs>
</svg>
